<svg width="42" height="42" viewBox="0 0 42 42" fill="none" xmlns="http://www.w3.org/2000/svg">
<rect x="1.5" y="1.5" width="39" height="39" rx="4.5" fill="white" stroke="black" stroke-width="3"/>
<rect x="7" y="7" width="28" height="28" rx="2" fill="black" stroke="black" stroke-width="2"/>
<circle cx="21.5" cy="15.5" r="7.5" fill="white"/>
<path fill-rule="evenodd" clip-rule="evenodd" d="M21.5171 10.8629C24.0012 10.9082 26.0009 12.936 26.0009 15.4309C26.0009 17.9542 23.9554 19.9998 21.4321 19.9998C18.9088 19.9998 16.8633 17.9542 16.8633 15.4309C16.8633 14.5325 17.1226 13.6947 17.5704 12.9882C17.7474 14.1254 18.731 14.9956 19.9178 14.9956C21.23 14.9956 22.2936 13.9319 22.2936 12.6198C22.2936 11.9236 21.9942 11.2974 21.5171 10.8629Z" fill="black"/>
<path d="M8.13281 26.0029C8.13281 23.3053 11.5049 21.6987 13.8832 22.972C16.1273 24.1734 18.7742 25.1809 21.3404 25.1809C23.9066 25.1809 26.5535 24.1734 28.7977 22.972C31.1759 21.6987 34.548 23.3053 34.548 26.0029V26.4013C34.548 26.78 34.5241 27.1596 34.3928 27.5147C33.8348 29.0243 31.3905 33.151 21.3404 33.151C11.2904 33.151 8.84602 29.0243 8.28807 27.5147C8.15679 27.1596 8.13281 26.78 8.13281 26.4013V26.0029Z" fill="white"/>
<path d="M11.3398 26.5726C11.3398 26.5726 15.1689 29.5663 21.2455 29.5663C27.3222 29.5663 31.1513 26.3588 31.1513 26.3588" stroke="black" stroke-width="2.5" stroke-linecap="round"/>
</svg>
